<?xml version="1.0" encoding="utf-8"?>
<!-- Generator: Adobe Illustrator 23.0.2, SVG Export Plug-In . SVG Version: 6.00 Build 0)  -->
<svg version="1.1" id="Layer_1" xmlns="http://www.w3.org/2000/svg" xmlns:xlink="http://www.w3.org/1999/xlink" x="0px" y="0px"
	 viewBox="0 0 463 128" style="enable-background:new 0 0 463 128;" xml:space="preserve">
<style type="text/css">
	.st0{fill:#DB6E23;}
	.st1{fill:#083358;stroke:#083358;stroke-miterlimit:10;}
	.st2{fill:#FFFF00;}
	.st3{fill:#FFFFFF;}
</style>
<path class="st0" d="M269.11,119.55H58.52c-30.94,0-56.02-25.08-56.02-56.02v-1.45c0-29.01,23.52-52.53,52.53-52.53h266.68v57.4
	C321.71,96,298.16,119.55,269.11,119.55z"/>
<path class="st1" d="M416.85,109.54H56.71c-24.45,0-44.28-19.82-44.28-44.28v-1.18c0-24.45,19.82-44.28,44.28-44.28h360.13
	c24.45,0,44.28,19.82,44.28,44.28v1.18C461.12,89.72,441.3,109.54,416.85,109.54z"/>
<g>
	<g>
		<path class="st2" d="M72.61,89.6c-2.5,1.25-7.49,2.5-13.88,2.5c-14.81,0-25.96-9.36-25.96-26.59c0-16.45,11.15-27.6,27.45-27.6
			c6.55,0,10.68,1.4,12.48,2.34l-1.64,5.54c-2.57-1.25-6.24-2.18-10.6-2.18c-12.32,0-20.51,7.88-20.51,21.68
			c0,12.87,7.41,21.13,20.19,21.13c4.13,0,8.34-0.86,11.07-2.18L72.61,89.6z"/>
		<path class="st2" d="M114.16,72.13c0,13.96-9.67,20.04-18.79,20.04c-10.21,0-18.09-7.49-18.09-19.42
			c0-12.63,8.27-20.04,18.71-20.04C106.83,52.72,114.16,60.59,114.16,72.13z M84.22,72.52c0,8.26,4.76,14.5,11.46,14.5
			c6.55,0,11.46-6.16,11.46-14.66c0-6.39-3.2-14.5-11.31-14.5C87.73,57.87,84.22,65.35,84.22,72.52z"/>
		<path class="st2" d="M122.82,63.79c0-3.9-0.08-7.1-0.31-10.21h6l0.31,6.08h0.23c2.11-3.59,5.61-6.94,11.85-6.94
			c5.15,0,9.04,3.12,10.68,7.56h0.16c1.17-2.1,2.65-3.74,4.21-4.91c2.26-1.72,4.76-2.65,8.34-2.65c4.99,0,12.4,3.27,12.4,16.37
			v22.22h-6.71V69.95c0-7.25-2.65-11.62-8.19-11.62c-3.9,0-6.94,2.89-8.11,6.24c-0.31,0.94-0.55,2.18-0.55,3.43v23.31h-6.71V68.7
			c0-6-2.65-10.37-7.88-10.37c-4.29,0-7.41,3.43-8.5,6.86c-0.39,1.01-0.55,2.18-0.55,3.35v22.77h-6.71V63.79z"/>
		<path class="st2" d="M187.84,65.9c0-4.83-0.16-8.73-0.31-12.32h6.16l0.31,6.47h0.16c2.81-4.6,7.25-7.33,13.41-7.33
			c9.12,0,15.98,7.72,15.98,19.18c0,13.57-8.27,20.27-17.15,20.27c-4.99,0-9.36-2.18-11.62-5.93h-0.16v20.51h-6.78V65.9z
			 M194.63,75.96c0,1.01,0.16,1.95,0.31,2.81c1.25,4.76,5.38,8.03,10.29,8.03c7.25,0,11.46-5.93,11.46-14.58
			c0-7.56-3.98-14.03-11.23-14.03c-4.68,0-9.04,3.35-10.37,8.5c-0.23,0.86-0.47,1.87-0.47,2.81V75.96z"/>
		<path class="st2" d="M263.79,81.02c0,3.9,0.08,7.33,0.31,10.29h-6.08l-0.39-6.16h-0.16c-1.79,3.04-5.77,7.02-12.48,7.02
			c-5.93,0-13.02-3.27-13.02-16.53V53.58h6.86v20.9c0,7.17,2.18,12.01,8.42,12.01c4.6,0,7.8-3.2,9.04-6.24
			c0.39-1.01,0.62-2.26,0.62-3.51V53.58h6.86V81.02z"/>
		<path class="st2" d="M283.43,42.74v10.84h9.82v5.22h-9.82v20.35c0,4.68,1.33,7.33,5.15,7.33c1.79,0,3.12-0.23,3.98-0.47l0.31,5.15
			c-1.33,0.55-3.43,0.94-6.08,0.94c-3.2,0-5.77-1.01-7.41-2.88c-1.95-2.03-2.65-5.38-2.65-9.82V58.8h-5.85v-5.22h5.85v-9.04
			L283.43,42.74z"/>
		<path class="st2" d="M304.33,73.69c0.16,9.28,6.08,13.1,12.94,13.1c4.91,0,7.88-0.86,10.45-1.95l1.17,4.91
			c-2.42,1.09-6.55,2.34-12.55,2.34c-11.62,0-18.56-7.64-18.56-19.02c0-11.38,6.71-20.35,17.7-20.35
			c12.32,0,15.59,10.84,15.59,17.78c0,1.4-0.16,2.5-0.23,3.2H304.33z M324.45,68.78c0.08-4.37-1.79-11.15-9.51-11.15
			c-6.94,0-9.98,6.39-10.53,11.15H324.45z"/>
	</g>
	<g>
		<path class="st3" d="M72.61,89.6c-2.5,1.25-7.49,2.5-13.88,2.5c-14.81,0-25.96-9.36-25.96-26.59c0-16.45,11.15-27.6,27.45-27.6
			c6.55,0,10.68,1.4,12.48,2.34l-1.64,5.54c-2.57-1.25-6.24-2.18-10.6-2.18c-12.32,0-20.51,7.88-20.51,21.68
			c0,12.87,7.41,21.13,20.19,21.13c4.13,0,8.34-0.86,11.07-2.18L72.61,89.6z"/>
		<path class="st3" d="M114.16,72.13c0,13.96-9.67,20.04-18.79,20.04c-10.21,0-18.09-7.49-18.09-19.42
			c0-12.63,8.27-20.04,18.71-20.04C106.83,52.72,114.16,60.59,114.16,72.13z M84.22,72.52c0,8.26,4.76,14.5,11.46,14.5
			c6.55,0,11.46-6.16,11.46-14.66c0-6.39-3.2-14.5-11.31-14.5C87.73,57.87,84.22,65.35,84.22,72.52z"/>
		<path class="st3" d="M122.82,63.79c0-3.9-0.08-7.1-0.31-10.21h6l0.31,6.08h0.23c2.11-3.59,5.61-6.94,11.85-6.94
			c5.15,0,9.04,3.12,10.68,7.56h0.16c1.17-2.1,2.65-3.74,4.21-4.91c2.26-1.72,4.76-2.65,8.34-2.65c4.99,0,12.4,3.27,12.4,16.37
			v22.22h-6.71V69.95c0-7.25-2.65-11.62-8.19-11.62c-3.9,0-6.94,2.89-8.11,6.24c-0.31,0.94-0.55,2.18-0.55,3.43v23.31h-6.71V68.7
			c0-6-2.65-10.37-7.88-10.37c-4.29,0-7.41,3.43-8.5,6.86c-0.39,1.01-0.55,2.18-0.55,3.35v22.77h-6.71V63.79z"/>
		<path class="st3" d="M187.84,65.9c0-4.83-0.16-8.73-0.31-12.32h6.16l0.31,6.47h0.16c2.81-4.6,7.25-7.33,13.41-7.33
			c9.12,0,15.98,7.72,15.98,19.18c0,13.57-8.27,20.27-17.15,20.27c-4.99,0-9.36-2.18-11.62-5.93h-0.16v20.51h-6.78V65.9z
			 M194.63,75.96c0,1.01,0.16,1.95,0.31,2.81c1.25,4.76,5.38,8.03,10.29,8.03c7.25,0,11.46-5.93,11.46-14.58
			c0-7.56-3.98-14.03-11.23-14.03c-4.68,0-9.04,3.35-10.37,8.5c-0.23,0.86-0.47,1.87-0.47,2.81V75.96z"/>
		<path class="st3" d="M263.79,81.02c0,3.9,0.08,7.33,0.31,10.29h-6.08l-0.39-6.16h-0.16c-1.79,3.04-5.77,7.02-12.48,7.02
			c-5.93,0-13.02-3.27-13.02-16.53V53.58h6.86v20.9c0,7.17,2.18,12.01,8.42,12.01c4.6,0,7.8-3.2,9.04-6.24
			c0.39-1.01,0.62-2.26,0.62-3.51V53.58h6.86V81.02z"/>
		<path class="st3" d="M283.43,42.74v10.84h9.82v5.22h-9.82v20.35c0,4.68,1.33,7.33,5.15,7.33c1.79,0,3.12-0.23,3.98-0.47l0.31,5.15
			c-1.33,0.55-3.43,0.94-6.08,0.94c-3.2,0-5.77-1.01-7.41-2.88c-1.95-2.03-2.65-5.38-2.65-9.82V58.8h-5.85v-5.22h5.85v-9.04
			L283.43,42.74z"/>
		<path class="st3" d="M304.33,73.69c0.16,9.28,6.08,13.1,12.94,13.1c4.91,0,7.88-0.86,10.45-1.95l1.17,4.91
			c-2.42,1.09-6.55,2.34-12.55,2.34c-11.62,0-18.56-7.64-18.56-19.02c0-11.38,6.71-20.35,17.7-20.35
			c12.32,0,15.59,10.84,15.59,17.78c0,1.4-0.16,2.5-0.23,3.2H304.33z M324.45,68.78c0.08-4.37-1.79-11.15-9.51-11.15
			c-6.94,0-9.98,6.39-10.53,11.15H324.45z"/>
	</g>
</g>
<path class="st3" d="M427.8,87.94l-10.8,10.69h-6.02V54.23h16.82V87.94z M388.56,87.45l11.36,11.18h5.46V59.78h-16.82V87.45z
	 M400.27,37.58l-11.71,11.66v4.99h51.06l10.6-10.56v-6.09H400.27z"/>
<path class="st0" d="M415.51,108.2c-23.87,0-43.23-19.35-43.23-43.23s19.35-43.23,43.23-43.23c11.37,0,21.71,4.4,29.42,11.57
	l13.35-13.35C447.04,9.15,431.77,2.5,414.95,2.5c-34.5,0-62.47,27.97-62.47,62.47s27.97,62.47,62.47,62.47
	c16.97,0,32.35-6.77,43.61-17.75l-13.34-13.34C437.47,103.69,427.02,108.2,415.51,108.2z"/>
</svg>
