<?xml version="1.0" encoding="utf-8"?>
<!-- Generator: Adobe Illustrator 23.0.2, SVG Export Plug-In . SVG Version: 6.00 Build 0)  -->
<svg version="1.1" id="Layer_1" xmlns="http://www.w3.org/2000/svg" xmlns:xlink="http://www.w3.org/1999/xlink" x="0px" y="0px"
	 viewBox="0 0 113 128" style="enable-background:new 0 0 113 128;" xml:space="preserve">
<style type="text/css">
	.st0{fill:#DB6E23;stroke:#083358;stroke-miterlimit:10;}
	.st1{fill:#083358;stroke:#083358;stroke-miterlimit:10;}
	.st2{fill:#FFFFFF;}
	.st3{fill:#DB6E23;}
</style>
<path class="st0" d="M158.31-458.89h-562.29c-48.34,0-87.53-39.19-87.53-87.53v-2c0-45.33,36.75-82.08,82.08-82.08H240.5v89.43
	C240.5-495.68,203.7-458.89,158.31-458.89z"/>
<path class="st1" d="M149.5-473.5h-558c-38.66,0-70-31.34-70-70v-2c0-38.66,31.34-70,70-70h558c38.66,0,70,31.34,70,70v2
	C219.5-504.84,188.16-473.5,149.5-473.5z"/>
<g>
	<rect x="-450.67" y="-591.3" style="fill:none;" width="483.67" height="184.16"/>
	<text transform="matrix(1 0 0 1 -450.6289 -505.0464)" style="fill:#FFFF00; font-family:'Myriad-Roman'; font-size:121.6409px;">Compute </text>
	<rect x="-450.67" y="-591.3" style="fill:none;" width="483.67" height="184.16"/>
	<text transform="matrix(1 0 0 1 -450.6289 -505.0464)" class="st2" style="font-family:'Myriad-Roman'; font-size:121.6409px;">Compute </text>
</g>
<path class="st2" d="M129.82-510.38L111.43-492h-10.25v-76.36h28.64V-510.38z M63-511.23L82.34-492h9.3v-66.82H63V-511.23z
	 M82.94-597L63-576.95v8.59h86.94L168-586.52V-597H82.94z"/>
<path class="st1" d="M65.58,109.73L65.58,109.73c-25.29,0-45.79-20.5-45.79-45.79v0c0-25.29,20.5-45.79,45.79-45.79h0
	c25.29,0,45.79,20.5,45.79,45.79v0C111.37,89.23,90.87,109.73,65.58,109.73z"/>
<path class="st2" d="M77.37,87.69L66.35,98.6h-6.14V53.29h17.16V87.69z M37.32,87.19L48.91,98.6h5.57V58.95H37.32V87.19z
	 M49.27,36.29l-11.95,11.9v5.1h52.1l10.82-10.77v-6.22H49.27z"/>
<path class="st3" d="M64.82,108.36c-24.36,0-44.11-19.75-44.11-44.11s19.75-44.11,44.11-44.11c11.6,0,22.15,4.49,30.03,11.81
	l13.62-13.62C97,7.29,81.42,0.5,64.25,0.5C29.04,0.5,0.5,29.04,0.5,64.25S29.04,128,64.25,128c17.31,0,33.01-6.91,44.5-18.11
	L95.14,96.28C87.23,103.76,76.57,108.36,64.82,108.36z"/>
<path class="st0" d="M-47.69-219.89h-328.29c-48.34,0-87.53-39.19-87.53-87.53v-2c0-45.33,36.75-82.08,82.08-82.08H34.5v89.43
	C34.5-256.68-2.3-219.89-47.69-219.89z"/>
<path class="st1" d="M182-235.5h-560c-38.66,0-70-31.34-70-70v0c0-38.66,31.34-70,70-70h560c38.66,0,70,31.34,70,70v0
	C252-266.84,220.66-235.5,182-235.5z"/>
<g>
	<rect x="-420.67" y="-350.3" style="fill:none;" width="483.67" height="184.16"/>
	<text transform="matrix(1 0 0 1 -420.666 -263.939)" style="fill:#FFFF00; font-family:'Myriad-Roman'; font-size:121.6409px;">Compute </text>
	<rect x="-420.67" y="-350.3" style="fill:none;" width="483.67" height="184.16"/>
	<text transform="matrix(1 0 0 1 -420.666 -263.939)"><tspan x="0" y="0" style="fill:#FFFFFF;stroke:#083358;stroke-miterlimit:10; font-family:'Myriad-Roman'; font-size:121.6409px;">Compute</tspan><tspan x="476.22" y="0" class="st2" style="font-family:'Myriad-Roman'; font-size:121.6409px;"> </tspan></text>
</g>
<polygon class="st2" points="200.02,-321.8 173.78,-321.8 173.78,-252.52 183.17,-252.52 200.02,-269.2 "/>
<polygon class="st2" points="138.8,-269.97 156.51,-252.52 165.03,-252.52 165.03,-313.14 138.8,-313.14 "/>
<polygon class="st2" points="157.06,-347.78 138.8,-329.59 138.8,-321.8 218.46,-321.8 235,-338.27 235,-347.78 "/>
<path class="st3" d="M180.83-237.6c-37.25,0-67.44-30.19-67.44-67.44s30.19-67.44,67.44-67.44c17.74,0,33.87,6.86,45.91,18.05
	l20.82-20.82c-17.52-16.88-41.35-27.26-67.6-27.26c-53.83,0-97.46,43.64-97.46,97.46s43.64,97.46,97.46,97.46
	c26.47,0,50.47-10.56,68.04-27.69l-20.81-20.81C215.1-244.63,198.79-237.6,180.83-237.6z"/>
</svg>
